<?xml version="1.0" standalone="no"?>
<!DOCTYPE svg PUBLIC "-//W3C//DTD SVG 20010904//EN"
 "http://www.w3.org/TR/2001/REC-SVG-20010904/DTD/svg10.dtd">
<svg version="1.0" xmlns="http://www.w3.org/2000/svg"
 width="612.000000pt" height="612.000000pt" viewBox="0 0 612.000000 612.000000"
 preserveAspectRatio="xMidYMid meet">

<g transform="translate(0.000000,612.000000) scale(0.100000,-0.100000)"
fill="#000000" stroke="none">
<path d="M1120 3660 l0 -1940 1940 0 1940 0 0 1940 0 1940 -1940 0 -1940 0 0
-1940z m3718 528 c1 -702 -2 -1248 -7 -1248 -7 0 -89 86 -270 282 -24 27 -47
48 -50 48 -4 0 -70 -69 -148 -152 -77 -84 -153 -166 -168 -183 -16 -16 -114
-122 -219 -235 -105 -113 -213 -230 -241 -259 -27 -30 -83 -89 -123 -130 l-72
-76 -28 31 c-15 16 -163 194 -329 395 -482 583 -712 861 -753 909 -20 25 -110
133 -199 240 -89 107 -166 195 -170 195 -7 0 -182 -208 -591 -703 -96 -117
-178 -212 -182 -212 -10 0 -11 2334 -1 2343 3 4 803 6 1777 4 l1771 -2 3
-1247z"/>
<path d="M2953 4986 c-92 -30 -176 -107 -221 -204 -22 -47 -26 -72 -27 -137 0
-69 5 -89 31 -145 37 -78 99 -141 174 -178 48 -24 67 -27 150 -27 114 0 162
18 241 92 154 143 153 373 0 516 -29 27 -73 58 -99 69 -59 27 -188 34 -249 14z"/>
<path d="M1770 1380 l0 -210 35 0 35 0 0 130 c0 78 4 130 10 130 5 0 19 -17
30 -37 11 -21 41 -69 65 -108 25 -38 51 -80 57 -92 9 -19 20 -23 55 -23 l43 0
0 210 0 210 -35 0 c-43 0 -44 -5 -48 -160 l-2 -115 -85 138 c-85 137 -85 137
-122 137 l-38 0 0 -210z"/>
<path d="M2714 1566 c-3 -13 -4 -106 -2 -207 l3 -184 43 -3 42 -3 0 210 0 211
-40 0 c-33 0 -41 -4 -46 -24z"/>
<path d="M2276 1470 c-41 -13 -73 -46 -92 -96 -14 -36 -14 -50 -4 -93 28 -118
167 -160 254 -78 125 118 8 316 -158 267z m117 -101 c33 -64 0 -142 -62 -142
-62 0 -96 69 -67 138 27 63 97 66 129 4z"/>
<path d="M2987 1460 c-34 -19 -42 -18 -38 3 1 5 -16 7 -36 5 l-38 -3 0 -145 0
-145 38 -3 37 -3 0 90 c0 123 16 160 67 161 34 0 43 -30 43 -144 l0 -106 40 0
40 0 0 105 c0 92 3 108 20 125 11 11 28 20 38 20 36 0 42 -20 42 -137 l0 -113
40 0 40 0 0 124 c0 118 -1 127 -24 153 -32 37 -97 39 -140 6 -25 -20 -29 -21
-44 -7 -16 17 -55 34 -75 34 -7 0 -29 -9 -50 -20z"/>
<path d="M3463 1469 c-31 -9 -63 -42 -63 -65 0 -22 54 -24 73 -3 31 33 97 22
97 -16 0 -20 -9 -25 -71 -40 -98 -24 -134 -66 -108 -126 23 -57 97 -75 157
-39 28 17 33 18 38 5 4 -9 19 -15 38 -15 l31 0 -4 117 c-2 65 -7 128 -12 141
-17 43 -101 63 -176 41z m107 -186 c0 -36 -9 -49 -41 -62 -20 -7 -32 -6 -48 6
-33 22 -24 55 19 70 57 19 70 17 70 -14z"/>
<path d="M3790 1462 c-46 -23 -71 -69 -73 -134 -3 -123 98 -198 184 -137 l29
20 0 -38 c0 -50 -10 -63 -51 -69 -26 -4 -40 -1 -58 15 -32 28 -91 29 -91 2 0
-34 33 -61 88 -71 93 -17 166 10 182 70 5 19 10 106 10 193 l0 157 -35 0 c-24
0 -35 -5 -35 -15 0 -19 2 -19 -45 5 -48 24 -61 25 -105 2z m117 -64 c32 -30
33 -118 1 -148 -62 -57 -133 17 -108 112 16 59 65 76 107 36z"/>
<path d="M4154 1466 c-99 -44 -113 -213 -23 -279 57 -41 148 -31 189 21 27 33
25 39 -11 47 -24 5 -35 2 -50 -14 -39 -41 -109 -15 -109 41 0 16 11 18 100 18
l100 0 0 33 c0 41 -28 95 -61 120 -34 24 -96 31 -135 13z m94 -62 c12 -8 22
-26 22 -40 0 -23 -3 -24 -60 -24 -53 0 -60 2 -60 20 0 25 34 60 58 60 10 0 28
-7 40 -16z"/>
<path d="M1956 941 c-3 -4 -41 -99 -85 -210 l-79 -201 43 0 c41 0 43 1 59 45
l18 45 87 0 87 0 15 -42 c15 -41 18 -43 62 -46 l45 -3 -79 198 c-44 109 -84
202 -88 206 -12 12 -79 19 -85 8z m73 -174 c11 -32 21 -62 21 -67 0 -6 -25
-10 -56 -10 -41 0 -55 3 -51 13 2 6 15 40 27 75 13 35 26 59 30 55 4 -4 17
-34 29 -66z"/>
<path d="M2907 942 c-14 -3 -17 -11 -15 -35 3 -29 6 -32 38 -32 32 0 35 3 38
33 2 17 0 32 -5 33 -4 0 -15 2 -23 3 -8 1 -23 1 -33 -2z"/>
<path d="M3060 739 l0 -209 35 0 35 0 -2 206 -3 207 -32 2 -33 3 0 -209z"/>
<path d="M3553 943 c-10 -3 -13 -55 -13 -209 l0 -204 40 0 c29 0 40 4 40 15 0
12 6 11 33 -5 17 -11 45 -20 60 -20 127 0 174 214 65 293 -33 24 -101 26 -126
3 -10 -9 -22 -16 -25 -16 -4 0 -7 32 -7 70 0 39 -3 70 -7 71 -5 0 -17 2 -28 4
-11 1 -26 1 -32 -2z m178 -182 c20 -16 24 -28 24 -79 0 -92 -49 -130 -106 -83
-21 16 -24 28 -24 81 0 53 3 65 24 81 13 10 31 19 41 19 10 0 28 -9 41 -19z"/>
<path d="M3914 941 c-2 -2 -4 -96 -4 -208 l0 -203 35 0 c21 0 35 5 36 13 2 20
2 42 1 227 l-2 175 -31 0 c-17 0 -33 -2 -35 -4z"/>
<path d="M2640 831 c-46 -9 -57 -17 -75 -50 -14 -28 -14 -29 16 -35 22 -4 38
0 60 16 24 18 34 20 57 12 16 -6 28 -18 30 -31 3 -18 -4 -24 -40 -33 -115 -28
-119 -30 -134 -66 -8 -19 -12 -45 -8 -59 15 -60 98 -84 161 -46 26 16 32 17
37 5 3 -8 19 -14 38 -14 l33 0 -3 112 c-3 124 -12 160 -45 176 -32 15 -86 21
-127 13z m90 -189 c0 -36 -18 -59 -51 -67 -18 -4 -32 -1 -43 10 -30 31 -17 58
34 73 54 16 60 14 60 -16z"/>
<path d="M3296 830 c-37 -7 -86 -47 -86 -70 0 -5 14 -11 31 -15 24 -5 35 -2
50 14 32 34 99 21 99 -18 0 -15 -15 -22 -72 -36 -86 -22 -118 -48 -118 -99 0
-73 94 -110 166 -65 29 17 34 18 34 5 0 -12 10 -16 41 -16 30 0 38 3 32 13 -4
6 -10 66 -13 131 -5 113 -6 120 -30 137 -31 21 -83 29 -134 19z m94 -185 c0
-27 -40 -75 -63 -75 -26 0 -49 26 -45 51 2 17 13 27 38 36 56 19 70 16 70 -12z"/>
<path d="M4146 829 c-61 -17 -96 -75 -96 -156 0 -100 61 -158 158 -150 41 3
59 10 82 32 38 37 38 51 -2 59 -27 5 -36 3 -47 -14 -29 -43 -111 -15 -111 38
0 21 4 22 101 22 l102 0 -6 45 c-11 75 -49 117 -117 127 -19 3 -48 2 -64 -3z
m84 -69 c11 -11 20 -29 20 -40 0 -18 -7 -20 -60 -20 -51 0 -60 3 -60 18 0 52
64 78 100 42z"/>
<path d="M2200 827 c0 -2 26 -69 58 -148 l58 -144 38 0 39 0 58 145 c33 79 59
146 59 147 0 2 -18 3 -39 3 -39 0 -40 -1 -61 -57 -42 -116 -53 -143 -55 -143
-2 0 -13 27 -55 143 -21 56 -22 57 -61 57 -21 0 -39 -2 -39 -3z"/>
<path d="M2890 680 l0 -150 40 0 40 0 0 150 0 150 -40 0 -40 0 0 -150z"/>
</g>
</svg>
